Coordinates
version=1
nRows=15
nColumns=46
inDegrees=yes

Units are S.I. units (second, meters, Newtons, ...)
Angles are in degrees.

endheader
time	pelvis_tilt	pelvis_list	pelvis_rotation	pelvis_tx	pelvis_ty	pelvis_tz	bb_angle	bb_tx	bb_ty	bb_tz	hip_flexion_r	hip_adduction_r	hip_rotation_r	knee_angle_r	knee_angle_r_beta	ankle_angle_r	subtalar_angle_r	mtp_angle_r	crank_angle_r	hip_flexion_l	hip_adduction_l	hip_rotation_l	knee_angle_l	knee_angle_l_beta	ankle_angle_l	subtalar_angle_l	mtp_angle_l	crank_angle_l	lumbar_extension	lumbar_bending	lumbar_rotation	arm_flex_r	arm_add_r	arm_rot_r	elbow_flex_r	pro_sup_r	wrist_flex_r	wrist_dev_r	arm_flex_l	arm_add_l	arm_rot_l	elbow_flex_l	pro_sup_l	wrist_flex_l	wrist_dev_l
      2.50000000	     -5.59356576	     -3.82945567	      0.38846902	      0.08322962	      1.18058279	     -0.24941580	      0.00000000	      0.50000000	      0.00000000	      0.25000000	     66.51835367	      2.01659424	      5.33862259	    103.80531628	      1.81174455	    -22.24973361	     -6.44212041	      0.00000000	      0.00000000	     35.04828545	     -7.49840514	     -1.43679833	     34.50110800	      0.60215793	      4.04672774	      1.00417354	      0.00000000	      0.00000000	    -64.10125338	      4.97087614	      4.71772831	     89.58088572	     -7.12734940	     39.36241839	     35.31130297	     32.38127879	      0.00000000	      0.00000000	     89.60252803	     -9.77730881	     47.88427736	     33.91026642	     25.95925674	      0.00000000	      0.00000000
      2.50500000	     -5.37777834	     -4.30706736	      0.42819256	      0.08437441	      1.18108109	     -0.25019662	      0.00000000	      0.50000000	      0.00000000	      0.25000000	     67.13766370	      2.28877266	      5.00615153	    104.71505146	      1.82762242	    -21.40070597	     -6.35973969	      0.00000000	      0.00000000	     34.08586755	     -8.21642250	     -2.09752665	     33.72148117	      0.58855088	      3.05941715	      2.59166060	      0.00000000	      0.00000000	    -63.94938391	      5.53207931	      5.11353753	     89.58951969	     -6.63467795	     40.05628818	     34.02649195	     31.75541791	      0.00000000	      0.00000000	     89.61804226	     -9.45115817	     49.55830805	     31.93274706	     25.84271606	      0.00000000	      0.00000000
      2.51000000	     -4.96663388	     -4.71035876	      0.49311084	      0.08553263	      1.18199279	     -0.25116918	      0.00000000	      0.50000000	      0.00000000	      0.25000000	     67.49206845	      2.46440165	      4.73242340	    105.54765897	      1.84215417	    -20.43953732	     -6.14674813	      0.00000000	      0.00000000	     32.87559558	     -8.83388808	     -2.81139854	     32.90392725	      0.57428187	      2.05126544	      4.06499450	      0.00000000	      0.00000000	    -64.16074817	      5.93650674	      5.39279337	     89.58363066	     -6.40260907	     40.34576941	     33.62126978	     31.56688713	      0.00000000	      0.00000000	     89.60709457	     -9.33313268	     50.03272743	     31.27922382	     25.79427182	      0.00000000	      0.00000000
      2.51500000	     -4.64151934	     -5.14766657	      0.57784413	      0.08643712	      1.18276063	     -0.25192996	      0.00000000	      0.50000000	      0.00000000	      0.25000000	     67.93267820	      2.73597900	      4.40455945	    106.26035441	      1.85459305	    -19.84111357	     -5.97812866	      0.00000000	      0.00000000	     31.81852552	     -9.48106200	     -3.48131901	     32.18835617	      0.56179280	      1.05693283	      5.44453601	      0.00000000	      0.00000000	    -64.28537750	      6.51463372	      5.61310294	     89.59329717	     -5.92318569	     40.70407413	     33.05940642	     31.33872425	      0.00000000	      0.00000000	     89.59950322	     -9.29736771	     50.66834298	     30.24733940	     25.68882199	      0.00000000	      0.00000000
      2.52000000	     -4.32719266	     -5.48524426	      0.68885712	      0.08724386	      1.18345121	     -0.25282625	      0.00000000	      0.50000000	      0.00000000	      0.25000000	     68.38913114	      2.82294627	      4.11234805	    106.94889512	      1.86661035	    -18.98470187	     -6.17660205	      0.00000000	      0.00000000	     30.80278913	     -9.95402503	     -4.04888377	     31.53173342	      0.55033257	      0.06162141	      6.47484182	      0.00000000	      0.00000000	    -64.41529559	      7.06688714	      5.71209476	     89.60461108	     -5.43652279	     41.07243670	     32.50444221	     31.10973042	      0.00000000	      0.00000000	     89.59349796	     -9.31879307	     51.36477522	     29.26853357	     25.59756205	      0.00000000	      0.00000000
      2.52500000	     -4.10597069	     -5.76574089	      0.76613122	      0.08797593	      1.18392518	     -0.25365603	      0.00000000	      0.50000000	      0.00000000	      0.25000000	     68.98203814	      2.90500021	      3.96793446	    107.59415098	      1.87787219	    -18.06922879	     -6.12716675	      0.00000000	      0.00000000	     29.92146640	    -10.36480438	     -4.60258230	     30.98979112	      0.54087389	     -0.85140449	      7.30823492	      0.00000000	      0.00000000	    -64.43533039	      7.57506049	      5.72064983	     89.62013820	     -4.92540355	     41.53670399	     31.91019783	     30.78017844	      0.00000000	      0.00000000	     89.58946906	     -9.40944514	     52.57694683	     28.18423207	     25.55183553	      0.00000000	      0.00000000
      2.53000000	     -4.06268737	     -6.12284614	      0.87523162	      0.08845276	      1.18425910	     -0.25449948	      0.00000000	      0.50000000	      0.00000000	      0.25000000	     69.69489613	      2.99907665	      3.68464109	    108.08037669	      1.88635843	    -17.44832282	     -6.15428640	      0.00000000	      0.00000000	     29.32236853	    -10.76378788	     -4.89795661	     30.54371984	      0.53308848	     -1.95276519	      7.67074497	      0.00000000	      0.00000000	    -64.42067766	      8.13087926	      5.86289009	     89.62633525	     -4.65582280	     41.63956857	     31.91435441	     30.73871848	      0.00000000	      0.00000000	     89.56707077	     -9.54729626	     52.74591710	     27.93184740	     25.52667318	      0.00000000	      0.00000000
      2.53500000	     -3.75394323	     -6.33972896	      0.85362160	      0.08890899	      1.18501307	     -0.25516035	      0.00000000	      0.50000000	      0.00000000	      0.25000000	     70.12018229	      3.22442608	      3.66073503	    108.53353906	      1.89426761	    -16.54867138	     -5.90551483	      0.00000000	      0.00000000	     28.36695871	    -11.10339180	     -5.35271838	     30.11900076	      0.52567573	     -2.85254277	      8.10806226	      0.00000000	      0.00000000	    -64.61313654	      8.53154448	      5.66556968	     89.64751113	     -3.95395720	     42.07689594	     31.51156222	     30.45773521	      0.00000000	      0.00000000	     89.58339714	     -9.96565628	     53.74417567	     26.93031417	     25.46429390	      0.00000000	      0.00000000
      2.54000000	     -3.67748698	     -6.56639897	      0.83202930	      0.08921492	      1.18531855	     -0.25585165	      0.00000000	      0.50000000	      0.00000000	      0.25000000	     70.81181904	      3.40033371	      3.57089364	    108.91641547	      1.90095006	    -15.95013356	     -5.76159471	      0.00000000	      0.00000000	     27.72994648	    -11.36270031	     -5.65392944	     29.81327152	      0.52033975	     -3.67738373	      8.04244193	      0.00000000	      0.00000000	    -64.60762536	      8.95547453	      5.51270348	     89.66682674	     -3.29095273	     42.33460459	     31.16725577	     29.95244619	      0.00000000	      0.00000000	     89.58889794	    -10.46877445	     55.62841067	     26.01610994	     25.53101552	      0.00000000	      0.00000000
      2.54500000	     -3.70033806	     -6.87841199	      0.73917872	      0.08941705	      1.18557670	     -0.25649884	      0.00000000	      0.50000000	      0.00000000	      0.25000000	     71.56881874	      3.69139776	      3.42188750	    109.18261034	      1.90559604	    -15.37614433	     -5.85100509	      0.00000000	      0.00000000	     27.26088259	    -11.71319101	     -5.86183452	     29.63677540	      0.51725931	     -4.38105067	      7.97381923	      0.00000000	      0.00000000	    -64.63945370	      9.31490985	      5.66727998	     89.68102576	     -3.03114189	     42.40327305	     31.27744048	     29.91312745	      0.00000000	      0.00000000	     89.57774699	    -10.71964482	     55.70354526	     25.87658011	     25.51739706	      0.00000000	      0.00000000
      2.55000000	     -3.70746939	     -7.18745551	      0.56714235	      0.08959507	      1.18598596	     -0.25698472	      0.00000000	      0.50000000	      0.00000000	      0.25000000	     72.26253409	      3.99790521	      3.23514845	    109.36255472	      1.90873666	    -14.67300490	     -5.95650116	      0.00000000	      0.00000000	     26.77635148	    -12.07995894	     -5.99266396	     29.51765220	      0.51518022	     -5.10282933	      7.81540445	      0.00000000	      0.00000000	    -64.71779440	      9.60400306	      5.76996618	     89.69284797	     -2.67465152	     42.48576458	     31.41497214	     29.88590245	      0.00000000	      0.00000000	     89.57464712	    -11.02493606	     55.75209001	     25.74609776	     25.50222399	      0.00000000	      0.00000000
      2.55500000	     -3.83388858	     -7.43444513	      0.22008996	      0.08946183	      1.18615561	     -0.25723068	      0.00000000	      0.50000000	      0.00000000	      0.25000000	     73.08477928	      4.47632655	      3.19450520	    109.47608559	      1.91071815	    -13.97971862	     -6.02119275	      0.00000000	      0.00000000	     26.43600469	    -12.41502785	     -6.21014750	     29.52096899	      0.51523811	     -5.67030892	      7.37480647	      0.00000000	      0.00000000	    -64.69000615	      9.72923514	      5.78068453	     89.70838199	     -2.22628185	     42.56687982	     31.59431212	     29.85281103	      0.00000000	      0.00000000	     89.56546573	    -11.51449527	     55.80906701	     25.57586245	     25.48227922	      0.00000000	      0.00000000
      2.56000000	     -3.95756399	     -7.63643289	     -0.18201011	      0.08937391	      1.18623689	     -0.25749089	      0.00000000	      0.50000000	      0.00000000	      0.25000000	     73.91081504	      4.88113428	      3.18488885	    109.52568612	      1.91158384	    -13.40772557	     -5.87779321	      0.00000000	      0.00000000	     26.11419383	    -12.70166244	     -6.46496846	     29.64127497	      0.51733784	     -6.11918405	      6.72597242	      0.00000000	      0.00000000	    -64.71317191	      9.76591124	      5.73249792	     89.71941920	     -1.77421933	     42.61324491	     31.80279901	     29.80539958	      0.00000000	      0.00000000	     89.55590471	    -12.04791970	     55.90077462	     25.48719428	     25.48569372	      0.00000000	      0.00000000
      2.56500000	     -4.15431153	     -7.80484792	     -0.65166118	      0.08910392	      1.18631412	     -0.25764913	      0.00000000	      0.50000000	      0.00000000	      0.25000000	     74.72851984	      5.35219354	      3.19697083	    109.45857223	      1.91041248	    -12.75424743	     -5.86843945	      0.00000000	      0.00000000	     25.91821938	    -12.95657724	     -6.58218284	     29.89147819	      0.52170471	     -6.45516019	      6.08725436	      0.00000000	      0.00000000	    -64.69795752	      9.69350953	      5.73806066	     89.73257123	     -1.38817646	     42.62469930	     32.01345945	     29.75934037	      0.00000000	      0.00000000	     89.55006932	    -12.55860803	     55.95892201	     25.49732672	     25.50648875	      0.00000000	      0.00000000
      2.57000000	     -4.46857947	     -7.88961055	     -1.08587660	      0.08856363	      1.18616055	     -0.25776397	      0.00000000	      0.50000000	      0.00000000	      0.25000000	     75.67534916	      5.69905942	      3.26493252	    109.33050551	      1.90817729	    -12.17876893	     -5.57767891	      0.00000000	      0.00000000	     25.95667621	    -13.05900658	     -6.49463720	     30.28686738	      0.52860556	     -6.89636176	      4.92921142	      0.00000000	      0.00000000	    -64.65669659	      9.68712269	      5.33658779	     89.74643357	     -0.46026991	     41.97908910	     32.41449171	     28.85580632	      0.00000000	      0.00000000	     89.52760982	    -14.26393653	     56.73080193	     26.98179482	     26.06885286	      0.00000000	      0.00000000
